Coordinates
version=1
nRows=19
nColumns=24
inDegrees=yes

Units are S.I. units (second, meters, Newtons, ...)
Angles are in degrees.

endheader
time	pelvis_tilt	pelvis_list	pelvis_rotation	pelvis_tx	pelvis_ty	pelvis_tz	hip_flexion_r	hip_adduction_r	hip_rotation_r	knee_angle_r	ankle_angle_r	subtalar_angle_r	mtp_angle_r	hip_flexion_l	hip_adduction_l	hip_rotation_l	knee_angle_l	ankle_angle_l	subtalar_angle_l	mtp_angle_l	lumbar_extension	lumbar_bending	lumbar_rotation
      5.79000000	      7.88832810	      5.31659019	     -1.20884164	      1.49884665	      0.75197964	     -0.30042677	      9.94315997	     -2.60282252	      2.79147158	    -69.45542833	    -11.99348728	    -21.59383974	      0.00000000	     -4.68599940	      7.68129040	      9.56332746	     -2.04019005	      3.21234412	    -19.84622908	      0.00000000	    -24.76728389	     -7.93701865	     -4.34018876
      5.80000000	      7.97380179	      5.04733204	     -0.57090637	      1.50905800	      0.75316798	     -0.30166463	     11.32034925	     -2.33870574	      2.10659222	    -69.31668380	     -9.15023888	    -21.57105580	      0.00000000	     -5.66292995	      7.42133675	     10.01208101	     -2.05803042	      4.00883213	    -19.48551522	      0.00000000	    -24.85894213	     -7.36738948	     -4.91282971
      5.81000000	      8.05760731	      4.76915249	      0.04750524	      1.51912928	      0.75416933	     -0.30283676	     12.61883909	     -2.08319898	      1.47238282	    -68.81664293	     -6.30005737	    -21.27032638	      0.00000000	     -6.60997290	      7.13434186	     10.45443991	     -2.09226441	      4.78315116	    -19.18789544	      0.00000000	    -24.97806256	     -6.80760435	     -5.41517555
      5.82000000	      8.12359321	      4.50669779	      0.61810884	      1.52906909	      0.75495574	     -0.30394654	     13.85751070	     -1.87193745	      0.90662492	    -67.97001942	     -3.60259375	    -20.83096425	      0.00000000	     -7.51901996	      6.85276721	     10.87360323	     -2.12811517	      5.54892539	    -18.94737881	      0.00000000	    -25.10969607	     -6.28205986	     -5.80354169
      5.83000000	      8.19676551	      4.25576318	      1.13346427	      1.53886432	      0.75555670	     -0.30497051	     14.99629102	     -1.68222980	      0.42536537	    -66.77152001	     -1.25456018	    -20.50017505	      0.00000000	     -8.41903362	      6.57077056	     11.25703831	     -2.15964208	      6.26683374	    -18.77876836	      0.00000000	    -25.28289419	     -5.78483068	     -6.13588454
      5.84000000	      8.25862285	      4.05262611	      1.59504723	      1.54855853	      0.75595908	     -0.30587917	     16.03805692	     -1.56104460	      0.00696975	    -65.22056892	      0.68360149	    -20.39800393	      0.00000000	     -9.28997693	      6.32790686	     11.61428701	     -2.19954948	      6.96161264	    -18.64922402	      0.00000000	    -25.46997901	     -5.37326017	     -6.39933965
      5.85000000	      8.30432974	      3.91105182	      2.01650917	      1.55815848	      0.75615687	     -0.30670649	     16.97408601	     -1.51233055	     -0.33995297	    -63.32088632	      2.10616246	    -20.73494564	      0.00000000	    -10.12743744	      6.14102642	     11.94921850	     -2.24926147	      7.63276043	    -18.54694255	      0.00000000	    -25.66654530	     -5.03461766	     -6.64255779
      5.86000000	      8.30611751	      3.85332451	      2.42266485	      1.56770505	      0.75612547	     -0.30745836	     17.82180752	     -1.58118775	     -0.66629416	    -61.08107427	      3.06094945	    -21.47325723	      0.00000000	    -10.90352768	      6.03275077	     12.31202441	     -2.31997658	      8.29688711	    -18.48336618	      0.00000000	    -25.83408191	     -4.79767087	     -6.89855634
      5.87000000	      8.39470390	      3.82585484	      2.80164111	      1.57723988	      0.75605715	     -0.30811014	     18.38504556	     -1.66817716	     -0.93573714	    -58.42592091	      3.44995852	    -22.80991825	      0.00000000	    -11.77087792	      5.93734942	     12.55281432	     -2.38643974	      8.92679796	    -18.31205090	      0.00000000	    -26.11583786	     -4.58661498	     -7.16427249
      5.88000000	      8.41233769	      3.87456888	      3.17936090	      1.58678175	      0.75574879	     -0.30869284	     18.86025609	     -1.85659452	     -1.19052708	    -55.42255818	      3.34183662	    -24.60346428	      0.00000000	    -12.55426046	      5.91461169	     12.80217576	     -2.47584516	      9.57610213	    -18.13140873	      0.00000000	    -26.32281400	     -4.46356787	     -7.47447382
      5.89000000	      8.40602067	      3.98250307	      3.53695953	      1.59636694	      0.75526088	     -0.30920942	     19.17926316	     -2.11884053	     -1.41478523	    -52.05718241	      2.87252968	    -26.66727870	      0.00000000	    -13.33028197	      5.94489131	     13.01942407	     -2.54404991	     10.20868019	    -17.93900286	      0.00000000	    -26.49975162	     -4.40318448	     -7.81828174
      5.90000000	      8.32033585	      4.16204357	      3.87533062	      1.60601188	      0.75452620	     -0.30966644	     19.41116591	     -2.47326870	     -1.61199272	    -48.35850758	      2.11986872	    -28.80209637	      0.00000000	    -14.03918495	      6.04959364	     13.17247684	     -2.59821410	     10.81489646	    -17.70024160	      0.00000000	    -26.57628473	     -4.42635392	     -8.22809465
      5.91000000	      8.24490968	      4.37932626	      4.17561405	      1.61574207	      0.75364567	     -0.31005885	     19.44523992	     -2.87275875	     -1.79581029	    -44.31241354	      1.37138196	    -30.58291641	      0.00000000	    -14.80436802	      6.18667695	     13.31363888	     -2.59607384	     11.38288050	    -17.49339841	      0.00000000	    -26.65402360	     -4.49208428	     -8.63478511
      5.92000000	      8.14847667	      4.64441891	      4.44195325	      1.62558180	      0.75258049	     -0.31039968	     19.32487611	     -3.32664725	     -1.97615269	    -39.95072036	      0.77816290	    -31.71362220	      0.00000000	    -15.59821627	      6.36839942	     13.43211491	     -2.53175904	     11.86431126	    -17.31741663	      0.00000000	    -26.69005106	     -4.61420436	     -9.05346300
      5.93000000	      7.98573233	      4.99374027	      4.69618361	      1.63554094	      0.75126141	     -0.31074889	     19.13349760	     -3.88387742	     -2.17695831	    -35.36417559	      0.56496567	    -31.73275381	      0.00000000	    -16.37467868	      6.63734462	     13.64753207	     -2.41734806	     12.34019953	    -17.23689547	      0.00000000	    -26.63093668	     -4.81941229	     -9.55394738
      5.94000000	      7.83874464	      5.36434654	      4.88717510	      1.64566092	      0.74980261	     -0.31096239	     18.74407768	     -4.36916448	     -2.12967029	    -30.49966426	      0.29328834	    -31.25734394	      0.00000000	    -17.20913724	      6.92293239	     13.74214879	     -2.25842410	     12.71958254	    -17.13262769	      0.00000000	    -26.56527654	     -5.08024628	    -10.03181156
      5.95000000	      7.68945069	      5.78940067	      5.08421271	      1.65594263	      0.74818763	     -0.31116683	     18.19376772	     -4.86348574	     -1.84608145	    -25.44548257	      0.05618550	    -30.08577541	      0.00000000	    -18.06360340	      7.25327160	     13.85242905	     -2.10727201	     13.08481728	    -16.99694485	      0.00000000	    -26.47766953	     -5.38433072	    -10.55476342
      5.96000000	      7.51959440	      6.30720695	      5.25759777	      1.66640214	      0.74638048	     -0.31135565	     17.63025688	     -5.48707780	     -1.59793479	    -20.44844795	      0.62173657	    -27.23479207	      0.00000000	    -18.88307506	      7.68403663	     13.76914457	     -2.02628792	     13.51051556	    -16.61978078	      0.00000000	    -26.34934336	     -5.79489813	    -11.13492447
      5.97000000	      7.38069348	      6.88766842	      5.45511770	      1.67705097	      0.74447039	     -0.31154582	     16.92542890	     -6.14337376	     -0.92627487	    -15.48194360	      0.97258291	    -24.22187993	      0.00000000	    -19.76771323	      8.14938523	     13.87407231	     -1.95487525	     13.94811030	    -16.27178676	      0.00000000	    -26.23856894	     -6.25369127	    -11.75695908
